<?xml version="1.0" encoding="UTF-8"?>
<svg xmlns="http://www.w3.org/2000/svg" xmlns:xlink="http://www.w3.org/1999/xlink" width="21pt" height="21pt" viewBox="0 0 21 21" version="1.1">
<g id="surface1">
<path style=" stroke:none;fill-rule:nonzero;fill:rgb(255,255,255);fill-opacity:1;" d="M 20.90625 20.296875 C 20.648438 17.417969 17.808594 15.53125 15.089844 16.339844 C 12.203125 12.835938 6.730469 13.046875 4.136719 16.820312 C 2.046875 16.6875 0.226562 18.238281 0.0195312 20.316406 C -0.0195312 20.695312 0.28125 21 0.632812 21 C 21.613281 21 20.398438 21.015625 20.589844 20.910156 C 20.816406 20.789062 20.945312 20.507812 20.90625 20.296875 Z M 20.90625 20.296875 "/>
<path style=" stroke:none;fill-rule:nonzero;fill:rgb(255,255,255);fill-opacity:1;" d="M 13.839844 12.65625 L 13.15625 13.339844 C 10.460938 12.113281 7.472656 12.507812 5.285156 13.984375 C 4.546875 12.519531 4.785156 10.683594 6.003906 9.464844 L 8.328125 7.144531 C 8.566406 6.902344 8.957031 6.902344 9.199219 7.144531 L 11.082031 9.03125 L 9.832031 10.28125 C 9.589844 10.523438 9.589844 10.914062 9.832031 11.152344 C 10.070312 11.390625 10.460938 11.394531 10.699219 11.152344 L 11.953125 9.898438 L 13.839844 11.785156 C 14.078125 12.027344 14.078125 12.417969 13.839844 12.65625 Z M 13.839844 12.65625 "/>
<path style=" stroke:none;fill-rule:nonzero;fill:rgb(255,255,255);fill-opacity:1;" d="M 20.804688 2.964844 C 20.394531 2.558594 18.582031 0.742188 18.015625 0.179688 C 17.777344 -0.0585938 17.386719 -0.0585938 17.148438 0.179688 C 16.90625 0.421875 16.90625 0.808594 17.148438 1.050781 L 18.105469 2.007812 L 11.082031 9.03125 L 11.953125 9.898438 L 18.976562 2.878906 L 19.933594 3.835938 C 20.050781 3.957031 20.210938 4.015625 20.367188 4.015625 C 20.910156 4.015625 21.191406 3.355469 20.804688 2.964844 Z M 20.804688 2.964844 "/>
</g>
</svg>
